<svg width="3200" height="3200" viewBox="0 0 3200 3200" fill="none" xmlns="http://www.w3.org/2000/svg">
<rect width="3200" height="3200" fill="white"/>
<g clip-path="url(#clip0_16_4)">
<rect width="3200" height="3200" fill="#F7F7F7"/>
<rect width="3200" height="3200" fill="#F7F7F7"/>
<path d="M1627.95 1841C1698.34 1841 1750.61 1821.6 1791.48 1823.43L1830 1711.39H1816.78C1778.26 1782.81 1723.57 1824.65 1650.23 1824.65C1537.76 1824.65 1456.03 1727.74 1456.03 1602.4C1455.96 1464.34 1523.33 1375.35 1635.8 1375.35C1709.75 1375.35 1768.06 1413.54 1805.38 1492.18H1818.59L1799.33 1365.69H1788.53C1783.7 1374.74 1777.13 1377.79 1767.46 1377.79C1750.01 1377.79 1712.17 1359 1633.39 1359C1483.07 1359 1370 1458.94 1370 1606.05C1370 1738.01 1489.65 1841 1627.95 1841Z" fill="#960000"/>
</g>
<defs>
<clipPath id="clip0_16_4">
<rect width="3200" height="3200" fill="white"/>
</clipPath>
</defs>
</svg>
